<svg xmlns="http://www.w3.org/2000/svg" width="20" height="20" viewBox="0 0 20 20">
  <path id="help_1" d="M650,192a10,10,0,1,0,10,10A10.011,10.011,0,0,0,650,192Zm4.292,12.524a4.85,4.85,0,0,0,0-5.048l1.817-1.817a7.469,7.469,0,0,1,0,8.682ZM647.5,202a2.5,2.5,0,1,1,2.5,2.5A2.5,2.5,0,0,1,647.5,202Zm6.841-6.109-1.817,1.817a4.851,4.851,0,0,0-5.048,0l-1.817-1.817a7.468,7.468,0,0,1,8.682,0Zm-10.45,1.768,1.817,1.817a4.849,4.849,0,0,0,0,5.048l-1.817,1.817a7.467,7.467,0,0,1,0-8.682Zm1.768,10.45,1.817-1.817a4.85,4.85,0,0,0,5.048,0l1.817,1.817a7.468,7.468,0,0,1-8.682,0Z" transform="translate(-640 -192)" fill="#155d75"/>
</svg>
