<svg xmlns="http://www.w3.org/2000/svg" width="19.037" height="19.742" viewBox="0 0 19.037 19.742">
  <path id="gear_2" d="M680.567,83.742a2.47,2.47,0,0,1-2.473-2.467l.026-1-.888.512a2.474,2.474,0,0,1-3.381-.906l-1.236-2.147a2.465,2.465,0,0,1,.905-3.366l.875-.48-.875-.5a2.465,2.465,0,0,1-.905-3.366l1.236-2.147a2.477,2.477,0,0,1,3.381-.907l.863.527V66.467A2.47,2.47,0,0,1,680.567,64h2.472a2.47,2.47,0,0,1,2.473,2.467l-.026,1,.888-.513a2.476,2.476,0,0,1,3.381.907l1.236,2.147a2.465,2.465,0,0,1-.9,3.366l-.892.469.892.515a2.465,2.465,0,0,1,.9,3.366l-1.236,2.147a2.474,2.474,0,0,1-3.381.906l-.863-.526v1.019a2.47,2.47,0,0,1-2.473,2.467Zm-1.254-5.606.036.02a2.42,2.42,0,0,1,1.218,2.1v1.019h2.472V80.255a2.419,2.419,0,0,1,1.218-2.1l.036-.02a2.431,2.431,0,0,1,2.432,0l.888.513,1.236-2.147-.892-.515a2.413,2.413,0,0,1-1.209-2.1v-.029a2.416,2.416,0,0,1,1.209-2.1l.892-.515L687.613,69.1l-.888.513a2.428,2.428,0,0,1-2.432,0l-.036-.02a2.418,2.418,0,0,1-1.218-2.1V66.467h-2.472v1.019a2.417,2.417,0,0,1-1.218,2.1l-.036.02a2.428,2.428,0,0,1-2.432,0l-.888-.513-1.236,2.147.874.505a2.45,2.45,0,0,1,0,4.246l-.874.505,1.236,2.147.888-.513a2.424,2.424,0,0,1,2.432,0Zm.023-4.265a2.468,2.468,0,1,1,2.469,2.467A2.468,2.468,0,0,1,679.336,73.871Z" transform="translate(-672.284 -64)" fill="#155d75"/>
</svg>
